Coordinates
version=1
nRows=21
nColumns=19
inDegrees=yes

Units are S.I. units (second, meters, Newtons, ...)
If the header above contains a line with 'inDegrees', this indicates whether rotational values are in degrees (yes) or radians (no).

endheader
time	pelvis_tilt	pelvis_list	pelvis_rotation	pelvis_tx	pelvis_ty	pelvis_tz	hip_flexion_r	hip_adduction_r	hip_rotation_r	knee_angle_r	knee_angle_r_beta	ankle_angle_r	hip_flexion_l	hip_adduction_l	hip_rotation_l	knee_angle_l	knee_angle_l_beta	ankle_angle_l
     16.71333333	     -1.34745798	      6.84366187	      2.36691176	      2.14053292	      0.96369468	      0.99458162	    -13.76918457	    -13.33295812	    -13.71730583	     68.66562495	      1.19844124	    -12.45433485	     25.46246939	     11.06107185	     -2.73124528	     12.89499010	      0.22506003	      4.56619659
     16.72000000	     -1.03057736	      7.53365349	      3.31551522	      2.13919112	      0.96050506	      0.99361000	    -12.56239558	    -13.83063929	    -13.44250595	     72.81200233	      1.27080918	    -12.08784318	     25.53361406	     11.98014606	     -4.06653722	     15.76163871	      0.27509249	      4.31439094
     16.72666667	     -0.74638563	      8.11312514	      4.41037928	      2.13779141	      0.95692307	      0.99267755	    -11.29029256	    -14.21333992	    -13.36075477	     76.76774140	      1.33984985	    -11.76002780	     25.66570885	     12.71268804	     -5.21212155	     19.09886309	      0.33333804	      4.26209810
     16.73333333	     -0.50698711	      8.53491905	      5.62443473	      2.13631214	      0.95296101	      0.99176587	     -9.91921597	    -14.46342448	    -13.43012823	     80.51752884	      1.40529598	    -11.41721002	     25.80838417	     13.24204112	     -5.96059306	     22.73573496	      0.39681343	      4.50493246
     16.74000000	     -0.34013960	      8.81236950	      6.90471890	      2.13476975	      0.94867855	      0.99085385	     -8.39686640	    -14.63790425	    -13.59028314	     84.04628004	      1.46688431	    -11.02752485	     25.92580805	     13.62460183	     -6.22599376	     26.47674141	      0.46210631	      5.12995849
     16.74666667	      0.11835167	      9.20413978	      8.15704360	      2.13325544	      0.94456327	      0.98997797	     -7.21092243	    -15.04580138	    -13.89600727	     87.27005459	      1.52314979	    -10.49964417	     25.49256464	     14.10991170	     -6.07117246	     30.04968247	      0.52446590	      6.19141916
     16.75333333	     -0.26789744	      8.96343959	      9.46011370	      2.13140851	      0.93953402	      0.98895467	     -4.72202129	    -14.93434689	    -13.92788065	     90.41744733	      1.57808216	    -10.03690112	     25.97873384	     14.15588377	     -5.22175261	     33.69148707	      0.58802738	      7.68450416
     16.76000000	     -0.35365125	      8.85899798	     10.64528880	      2.12952124	      0.93499476	      0.98792466	     -2.52684462	    -15.11588944	    -13.99520406	     93.22383066	      1.62706279	     -9.46959378	     25.85047689	     14.37213265	     -4.08780686	     36.94479791	      0.64480837	      9.57842341
     16.76666667	     -0.49779153	      8.67508249	     11.69531420	      2.12754700	      0.93070473	      0.98688905	     -0.10948051	    -15.36171346	    -13.92390380	     95.73740239	      1.67093289	     -8.83761015	     25.54869356	     14.56729381	     -2.71342129	     39.83096356	      0.69518146	     11.75930918
     16.77333333	     -0.73822301	      8.43274218	     12.48568285	      2.12559982	      0.92677148	      0.98597996	      2.63090544	    -15.69085176	    -13.57496965	     97.95523225	      1.70964132	     -8.25155906	     25.08704265	     14.67728555	     -1.35972997	     42.26519636	      0.73766684	     14.15868059
     16.78000000	     -0.39667194	      8.48258134	     12.87754419	      2.12390582	      0.92425206	      0.98545692	      4.77766267	    -16.30074034	    -12.98005134	     99.69054556	      1.73992825	     -7.60354315	     23.51910945	     14.84490493	     -0.18506119	     43.94767129	      0.76703156	     16.70001649
     16.78666667	     -1.17626632	      7.92651409	     13.22104298	      2.12190568	      0.92094893	      0.98488518	      8.60423492	    -16.41336207	    -12.03631422	    101.27237441	      1.76753637	     -7.04064946	     23.18639742	     14.59840177	      1.00693755	     45.47678915	      0.79371970	     19.02373453
     16.79333333	     -0.94169871	      7.80318337	     13.24165969	      2.12046885	      0.91978716	      0.98467578	     11.13396708	    -16.83368791	    -11.13231916	    102.18226948	      1.78341704	     -6.45408595	     21.17036278	     14.43018684	      2.01175967	     46.12732135	      0.80507363	     21.30601181
     16.80000000	     -1.37418164	      7.47496966	     12.80638741	      2.11903160	      0.91847547	      0.98506784	     14.81109657	    -16.87834158	     -9.54762098	    102.87295449	      1.79547177	     -5.93711520	     19.77879818	     13.93388854	      2.40524961	     46.39608642	      0.80976447	     23.19159399
     16.80666667	     -1.27873266	      7.14511120	     12.66345211	      2.11797405	      0.91873896	      0.98506259	     17.51933028	    -16.91131867	     -8.64885876	    102.86422042	      1.79531933	     -5.33579997	     17.40893938	     13.43381590	      3.27947605	     46.05689791	      0.80384451	     24.71050679
     16.81333333	     -1.19626629	      6.92479496	     11.46895784	      2.11745802	      0.91954401	      0.98631572	     20.60996773	    -16.56249981	     -6.70488809	    102.53746714	      1.78961641	     -4.78389486	     14.86667540	     12.57601316	      2.73316648	     45.14643979	      0.78795402	     25.81328908
     16.82000000	     -1.14311343	      6.55968548	     10.50979141	      2.11717775	      0.92106739	      0.98722088	     23.44200731	    -16.03162132	     -5.25151606	    101.69450386	      1.77490392	     -4.18359754	     12.13320183	     11.69705071	      2.44885736	     43.82966458	      0.76497196	     26.30668401
     16.82666667	     -0.87948767	      6.19581076	      9.46908650	      2.11731177	      0.92341852	      0.98811375	     25.78369259	    -15.38400568	     -3.99651806	    100.34724122	      1.75138975	     -3.52477044	      8.95747289	     10.78366968	      1.97433440	     42.07022881	      0.73426401	     26.21427314
     16.83333333	     -0.61969786	      5.69795578	      8.41273562	      2.11781875	      0.92629666	      0.98900719	     27.86626772	    -14.50236798	     -2.99710233	     98.55209846	      1.72005860	     -2.82083416	      5.65923952	      9.76833585	      1.36658056	     39.99259708	      0.69800250	     25.48552446
     16.84000000	     -0.43965507	      5.12854177	      7.35622529	      2.11865748	      0.92945621	      0.98970499	     29.76669527	    -13.53892535	     -2.23379556	     96.36485446	      1.68188399	     -2.10642656	      2.37027300	      8.75972658	      0.58839688	     37.68074687	      0.65765310	     24.12255394
     16.84666667	     -0.34320563	      4.49516517	      6.37191151	      2.11978903	      0.93284683	      0.99018764	     31.45373089	    -12.55356973	     -1.77042010	     93.79788335	      1.63708190	     -1.37033914	     -0.86974335	      7.78646699	     -0.24771289	     35.19300616	      0.61423383	     22.11923694
